/* XPM */
static char *_083dad4c205481ed422d0f1df3445fdUWeFCoDDFHW2S52a[] = {
/* columns rows colors chars-per-pixel */
"64 64 3 1 ",
"  c None",
". c black",
"X c white",
/* pixels */
"                                                                ",
"                                                                ",
"                                                                ",
"                                                                ",
"                                                                ",
"                                                                ",
"                                                                ",
"                                                                ",
"                                                                ",
"                                                                ",
"                                                                ",
"                                                                ",
"                                                                ",
"                                                                ",
"                                                                ",
"                                                                ",
"                                                                ",
"                                                                ",
"                                                                ",
"                                                                ",
"                             XXXXXXX                            ",
"                       XXXXXXXXXXXXXXXXXXXX                     ",
"                   XXXXXXXXXXX..X..XXXXXXXXXXXX                 ",
"                  XXXXXX.......X.X........XXXXXXX               ",
"                 XXX..........X...X..........XXXX               ",
"                XXX.X.........X....X........X.XXXX              ",
"                XX...X.......X.....X.......X....XX              ",
"               XXX....XX....X.......X.....X.....XXX             ",
"              XX........X..X.........X...X.......XX             ",
"              XX.........X.X..........X.X........XX             ",
"              XXXXXXXXXXXXXXXXXXXXXXXXXXXXXXXXXXXXX             ",
"              XXX........X.............X........XXX             ",
"               XXX........X...........X........XXX              ",
"                XXX.......X...........X.......XXX               ",
"                 XXX.......X.........X.......XXX                ",
"                  XXX......X.........X......XXX                 ",
"                   XXX.....X.........X.....XXX                  ",
"                    XXX.....X.......X.....XXX                   ",
"                     XXX....X.......X.....XX                    ",
"                      XXX...X......X....XXX                     ",
"                       XXX...X.....X...XXX                      ",
"                        XXX..X....X...XXX                       ",
"                         XXX..X...X..XXX                        ",
"                          XX..X...X.XXX                         ",
"                           XX.X..X.XXX                          ",
"                            XX.X.XXXX                           ",
"                             XXXXXXX                            ",
"                              XXXXX                             ",
"                               XXX                              ",
"                                                                ",
"                                                                ",
"                                                                ",
"                                                                ",
"                                                                ",
"                                                                ",
"                                                                ",
"                                                                ",
"                                                                ",
"                                                                ",
"                                                                ",
"                                                                ",
"                                                                ",
"                                                                ",
"                                                                "
};
