/* XPM */
static char *cfcf319c8af64abdc88083603af6b93cslzAgnwnfp7QjE3K[] = {
/* columns rows colors chars-per-pixel */
"64 64 3 1 ",
"  c None",
". c black",
"X c white",
/* pixels */
"                                                                ",
"                                                                ",
"                                                                ",
"                                                                ",
"                                                                ",
"                                                                ",
"                                                                ",
"                                                                ",
"                                                                ",
"                                                                ",
"                                                                ",
"                                                                ",
"                                                                ",
"                                                                ",
"                                                                ",
"                       XXX             XXX                      ",
"                     XXXXXXX          XXXXX                     ",
"                                                                ",
"                     XX XXXXXXXXXXXXXXXXXXX                     ",
"                  XX XXXXXXXXXXXXXXXXXXXXXXXXXX                 ",
"                XXXXXXXXXX...............XXXXXXXX               ",
"               XXXXXXXX.......................XXXXX             ",
"              XXXX.............................XXXXX            ",
"             XXX.................................XXXX           ",
"             XXX..................................XXXX          ",
"            XXX....................................XXX          ",
"           XXX......................................XX          ",
"          XXXX......................................XXX         ",
"          XXX.......................................XXX         ",
"         XXX ........................................XX         ",
"         XXX.........................................XX         ",
"         XX..........................................XX         ",
"         XX..........................................XX         ",
"        XXX.........................................XXX         ",
"        XXX.........................................XXX         ",
"        XX..........................................XX          ",
"        XX..........................................XX          ",
"        XXX.......................................XXXX          ",
"        XXX.......XXX...X....X....X....XXXXX......XXX           ",
"         XXX......X......X..X...........XX......XXXX            ",
"          XXX.....XXX.....XX......X.....XX....XXXXX             ",
"          XXXX....X......X..X.....X.....XX...XXXXX              ",
"           XXXXX..XXX...X....X....X.....XX..XXXX                ",
"             XXXXXXX...................... XXXX                 ",
"              XXXXXXXXX...............XXXXXXXX                  ",
"                  XXXXXXXXXXXXXXXXXXXXXXXXXX                    ",
"                      XXXXXXXXXXXXXXXXXX                        ",
"                                                                ",
"                                                                ",
"                                                                ",
"                                                                ",
"                                                                ",
"                                                                ",
"                                                                ",
"                                                                ",
"                                                                ",
"                                                                ",
"                                                                ",
"                                                                ",
"                                                                ",
"                                                                ",
"                                                                ",
"                                                                ",
"                                                                "
};
