/* XPM */
static char *b641a3667b474a21b2daf2ec602f72e6raLCkUfO5v7aauNa[] = {
/* columns rows colors chars-per-pixel */
"64 64 3 1 ",
"  c None",
". c black",
"X c white",
/* pixels */
"                                                                ",
"                                                                ",
"                                                                ",
"                                                                ",
"                                                                ",
"                                                                ",
"                                                                ",
"                                                                ",
"                                                                ",
"                                                                ",
"                                                                ",
"                                                                ",
"                            XXXXXXXXXXXXXXX                     ",
"                         XXXXXXXXXXXXXXXXXXXXX                  ",
"                       XXXXXX.............XXXXXX                ",
"                     XXXXX..................XXXXX               ",
"                   XXXXX......................XXXX              ",
"                   XXXX.........................XXX             ",
"                  XXX............................XXX            ",
"                 XXXXXX..........................XXX            ",
"                 XXXXXXX.........................XXXX           ",
"                XXX.XXXXX........................XXXXX          ",
"                XXX...XXX........................XXXXX          ",
"               XXX.....XX.........................XXXX          ",
"            XXXXXX.....XX..........................XXX          ",
"          XXXXXXXX....XXX..........................XXXX         ",
"        XXXXXX.XXX....XXX...........................XXXX        ",
"       XXXX....XXXX..XXX............................XXXX        ",
"       XXXX......XXXXXXX.............................XXX        ",
"       XXXX..........................................XXX        ",
"       XXXXXX.......................................XXXX        ",
"          XXXXXXXXXXXX............................XXXXXX        ",
"               XXX.XXXXX...............XXXXXXXXXXXXXXXXX        ",
"              XXX..XXXXXXXXXXXXXXXXXXXXXXX.XXXXXXXXXXX          ",
"             XXX.......XXXXXXXXXXXXXXXXXX..XX......XXX          ",
"             XX...XXX...................XX..XX......XXX         ",
"            XXX.XXXXXX..................XX..XX.......XX         ",
"    XXX     XX..XXXXXX..................XXX.XX.......XX     X   ",
"     XXX   XXX......XXX....XXXXXX........XX.XXX......XX   XXX   ",
"      XX   XXX....XX.XX....XXXXXXX.......XX.XXX......XXX  XX    ",
"       XXXXXX.....XX.XX...XXX...XX.......XX..XX.......XXXXX     ",
"           XX.............XX.XX.XX.......XX..XX.......XX        ",
"           XX................XX.XX.......XX..XX.......XX        ",
"           XX............................XX..XX.......XX        ",
"           XX............................XX..XX.......XX        ",
"           XX............................XX..XX.......XX        ",
"           XXX...........................XX..XX.......XX        ",
"            XXX.......XX.................XX..XX......XXX        ",
"            XXX........X.................XX..XX......XXX        ",
"             XXX.........................XX.XXX.....XXX         ",
"             XXXXX......................XX.XXX....XXXX          ",
"               XXXX....................XXX.XXX...XXXXX          ",
"                XXXXXXXX...............XXX.XX.XXXXXX            ",
"                  XXXXXXXXXXXXXXXXXXXXXXXXXXXXXXXX              ",
"                    XXXXXXXXXXXXXXXXXXXXXXXXXXX                 ",
"                       XXX                                      ",
"                                                                ",
"                                                                ",
"                                                                ",
"                                                                ",
"                                                                ",
"                                                                ",
"                                                                ",
"                                                                "
};
