/* XPM */
static char *c259388bed2c44e2ac267f716363cdc6RM3rmYjsf3ztBOtS[] = {
/* columns rows colors chars-per-pixel */
"64 64 3 1 ",
"  c None",
". c black",
"X c white",
/* pixels */
"                                                                ",
"                                                                ",
"                                                                ",
"                                                                ",
"                                                                ",
"                                                                ",
"                                                                ",
"                                                                ",
"                                                                ",
"                                                                ",
"                                                                ",
"                                                                ",
"                                                                ",
"                                                                ",
"                                                                ",
"                       XXXXXXXXXXXXXXX                          ",
"                    XXXXXXXXXXXXXXXXXXXX                        ",
"                  XXXXXXX...........XXXXXX                      ",
"                 XXXXX............ ...XXXXX                     ",
"                XXXX....................XXXXX                   ",
"               XXXX......................XXXXX                  ",
"              XXX..........................XXXX                 ",
"             XXX............................XXXX                ",
"            XXX..............................XXXX               ",
"            XXX...............................XXXX              ",
"           XXX.....XXXX........................XXX              ",
"           XXX ....XXXX................XX.......XX              ",
"          XXX.....XXX..................XXX......XXX             ",
"          XX......XX...................XXX.......XX             ",
"         XXX....XXXX....................XX.......XXX            ",
"         XX.....XX...............................XXX            ",
"        XXX.......................................XXX           ",
"        XXX. .....................................XXX           ",
"       XXX.........................................XXX          ",
"       XXX..............XXXXXX.................XXXXXXX          ",
"       XX...............XXXXXX..............XXXXXXXXXXXX        ",
"       XX.....................XX..........XXXXXX......XXX       ",
"       XX.....................XX.........XXX...........XXX      ",
"       XX................................XX.............XXX     ",
"       XX................................XX.............XXX     ",
"       XX ..............................XXX........XXX...XXX    ",
"       XX ..............................XXX........XXX....XX    ",
"       XX ..............................XXX...............XX    ",
"       XX...............................XXX................XX   ",
"       XX.........XX.....................XX................XX   ",
"       XX ........XXXXX..................XX................XX   ",
"       XXX. .......XXXX..................XX................XX   ",
"       XXXX .............................XX................XX   ",
"        XXXXX............................XXX...............XX   ",
"         XXXXXXX............XXXXX.......  XXXXXX..........XXX   ",
"           XXXXXXXXXXXXXXXXXXXXXXXXXXXXXXXXXXXXX.........XXXX   ",
"              XXXXXXXXXXXXXXXX  XXXXXXXXXXXXXXXXXXXXXXXXXXXX    ",
"                                              XXXXXXXXXXXX      ",
"                                                                ",
"                                                                ",
"                                                                ",
"                                                                ",
"                                                                ",
"                                                                ",
"                                                                ",
"                                                                ",
"                                                                ",
"                                                                ",
"                                                                "
};
